<svg width="24" height="25" viewBox="0 0 24 25" fill="none" xmlns="http://www.w3.org/2000/svg">
<path d="M12 6.61554C15.3623 6.61554 18.1375 9.39076 18.1375 12.753C18.1375 16.1687 15.3623 18.8905 12 18.8905C8.58435 18.8905 5.8625 16.1687 5.8625 12.753C5.8625 9.39076 8.58435 6.61554 12 6.61554ZM12 16.7558C14.1882 16.7558 15.9493 14.9946 15.9493 12.753C15.9493 10.5649 14.1882 8.80369 12 8.80369C9.75848 8.80369 7.99728 10.5649 7.99728 12.753C7.99728 14.9946 9.81185 16.7558 12 16.7558ZM19.792 6.40206C19.792 7.20261 19.1515 7.84304 18.351 7.84304C17.5504 7.84304 16.91 7.20261 16.91 6.40206C16.91 5.60152 17.5504 4.96109 18.351 4.96109C19.1515 4.96109 19.792 5.60152 19.792 6.40206ZM23.848 7.84304C23.9548 9.81772 23.9548 15.7417 23.848 17.7164C23.7413 19.6377 23.3143 21.2922 21.9267 22.7332C20.5391 24.1208 18.8313 24.5477 16.91 24.6545C14.9353 24.7612 9.0113 24.7612 7.03663 24.6545C5.11533 24.5477 3.46087 24.1208 2.01989 22.7332C0.632282 21.2922 0.205325 19.6377 0.0985861 17.7164C-0.00815301 15.7417 -0.00815301 9.81772 0.0985861 7.84304C0.205325 5.92174 0.632282 4.21391 2.01989 2.8263C3.46087 1.43869 5.11533 1.01174 7.03663 0.904998C9.0113 0.798259 14.9353 0.798259 16.91 0.904998C18.8313 1.01174 20.5391 1.43869 21.9267 2.8263C23.3143 4.21391 23.7413 5.92174 23.848 7.84304ZM21.2863 19.7978C21.9267 18.2501 21.7666 14.5142 21.7666 12.753C21.7666 11.0452 21.9267 7.30935 21.2863 5.70826C20.8593 4.69424 20.0588 3.84032 19.0448 3.46674C17.4437 2.8263 13.7078 2.98641 12 2.98641C10.2388 2.98641 6.50293 2.8263 4.95522 3.46674C3.88783 3.89369 3.08728 4.69424 2.66033 5.70826C2.01989 7.30935 2.18 11.0452 2.18 12.753C2.18 14.5142 2.01989 18.2501 2.66033 19.7978C3.08728 20.8652 3.88783 21.6658 4.95522 22.0927C6.50293 22.7332 10.2388 22.573 12 22.573C13.7078 22.573 17.4437 22.7332 19.0448 22.0927C20.0588 21.6658 20.9127 20.8652 21.2863 19.7978Z" fill="white"/>
</svg>
