<svg width="23" height="23" viewBox="0 0 23 23" fill="none" xmlns="http://www.w3.org/2000/svg">
<path d="M5.23048 23V7.88237H0.528341V23H5.23048ZM2.85413 5.85994C4.37095 5.85994 5.58441 4.59593 5.58441 3.07911C5.58441 1.61285 4.37095 0.399393 2.85413 0.399393C1.38787 0.399393 0.174417 1.61285 0.174417 3.07911C0.174417 4.59593 1.38787 5.85994 2.85413 5.85994ZM22.775 23H22.8256V14.7081C22.8256 10.6632 21.9155 7.52844 17.1628 7.52844C14.8876 7.52844 13.3707 8.79246 12.7135 9.95535H12.6629V7.88237H8.163V23H12.8651V15.517C12.8651 13.5452 13.2191 11.6744 15.646 11.6744C18.0729 11.6744 18.1234 13.8991 18.1234 15.6687V23H22.775Z" fill="white"/>
</svg>
