<svg width="26" height="22" viewBox="0 0 26 22" fill="none" xmlns="http://www.w3.org/2000/svg">
<path d="M23.2638 6.03405C23.2638 6.28685 23.2638 6.4891 23.2638 6.7419C23.2638 13.7698 17.9549 21.809 8.19674 21.809C5.1631 21.809 2.38227 20.9494 0.0564756 19.4326C0.460961 19.4832 0.865446 19.5337 1.32049 19.5337C3.79796 19.5337 6.07319 18.6742 7.89338 17.2585C5.56759 17.208 3.59572 15.6911 2.93843 13.5676C3.29236 13.6181 3.59572 13.6687 3.94965 13.6687C4.40469 13.6687 4.9103 13.5676 5.31478 13.4665C2.88787 12.9609 1.06769 10.8373 1.06769 8.25872V8.20816C1.77554 8.61264 2.63507 8.81489 3.4946 8.86545C2.02834 7.90479 1.11825 6.28685 1.11825 4.46667C1.11825 3.45546 1.37105 2.54537 1.8261 1.78696C4.45525 4.97228 8.39898 7.09582 12.7978 7.34863C12.6966 6.94414 12.6461 6.53966 12.6461 6.13517C12.6461 3.20265 15.0224 0.826304 17.9549 0.826304C19.4718 0.826304 20.8369 1.43303 21.8481 2.49481C23.011 2.242 24.1739 1.78696 25.1851 1.18023C24.7806 2.44424 23.9717 3.45546 22.8593 4.11275C23.9211 4.01162 24.9829 3.70826 25.893 3.30378C25.1851 4.36555 24.275 5.27564 23.2638 6.03405Z" fill="white"/>
</svg>
