<svg width="74" height="50" viewBox="0 0 74 50" fill="none" xmlns="http://www.w3.org/2000/svg">
<g clip-path="url(#clip0_1189_216)">
<path d="M45.4175 0.117102C43.4519 -0.361413 41.4054 0.605384 40.8388 2.26554L26.0388 46.0155C25.4722 47.6757 26.6169 49.4042 28.5825 49.8827C30.5482 50.3612 32.5947 49.3944 33.1613 47.7343L47.9613 3.98429C48.5279 2.32413 47.3832 0.595618 45.4175 0.117102ZM54.7369 11.8456C53.2916 13.0663 53.2916 15.0487 54.7369 16.2694L65.0622 24.9999L54.7254 33.7304C53.28 34.9511 53.28 36.9335 54.7254 38.1542C56.1707 39.3749 58.5178 39.3749 59.9632 38.1542L72.9132 27.2167C74.3585 25.996 74.3585 24.0136 72.9132 22.7929L59.9632 11.8554C58.5178 10.6347 56.1707 10.6347 54.7254 11.8554L54.7369 11.8456ZM19.2747 11.8456C17.8294 10.6249 15.4822 10.6249 14.0369 11.8456L1.08691 22.7831C-0.358398 24.0038 -0.358398 25.9862 1.08691 27.2069L14.0369 38.1444C15.4822 39.3651 17.8294 39.3651 19.2747 38.1444C20.72 36.9237 20.72 34.9413 19.2747 33.7206L8.93785 24.9999L19.2747 16.2694C20.72 15.0487 20.72 13.0663 19.2747 11.8456Z" fill="white"/>
</g>
<defs>
<clipPath id="clip0_1189_216">
<rect width="74" height="50" fill="white"/>
</clipPath>
</defs>
</svg>
