<svg width="128" height="128" viewBox="0 0 128 128" fill="none" xmlns="http://www.w3.org/2000/svg">
<g clip-path="url(#clip0_1190_230)">
<path d="M34.6803 93.3197C32.7522 91.3916 31.704 88.7416 31.7661 85.9527C31.8283 83.1638 32.9958 80.4644 35.0118 78.4484C37.0278 76.4324 39.7272 75.2649 42.5161 75.2027C45.305 75.1406 47.955 76.1888 49.8831 78.117C51.8112 80.0451 52.8595 82.6951 52.7974 85.484C52.7352 88.2729 51.5677 90.9723 49.5517 92.9883C47.5357 95.0043 44.8363 96.1718 42.0474 96.234C39.2584 96.2961 36.6085 95.2479 34.6803 93.3197ZM56.3986 71.6015C54.4705 69.6734 53.4222 67.0234 53.4844 64.2344C53.5466 61.4455 54.7141 58.7461 56.7301 56.7301C58.7461 54.7141 61.4455 53.5466 64.2344 53.4844C67.0233 53.4223 69.6733 54.4706 71.6014 56.3987C73.5295 58.3268 74.5778 60.9768 74.5156 63.7657C74.4535 66.5546 73.286 69.254 71.27 71.27C69.2539 73.286 66.5546 74.4535 63.7656 74.5157C60.9767 74.5779 58.3267 73.5296 56.3986 71.6015ZM78.4484 35.0118C80.4644 32.9958 83.1638 31.8283 85.9527 31.7662C88.7416 31.704 91.3916 32.7523 93.3197 34.6804C95.2478 36.6085 96.2961 39.2585 96.2339 42.0474C96.1718 44.8363 95.0043 47.5357 92.9882 49.5517C90.9722 51.5677 88.2728 52.7353 85.4839 52.7974C82.695 52.8596 80.045 51.8113 78.1169 49.8832C76.1888 47.9551 75.1405 45.3051 75.2027 42.5162C75.2648 39.7273 76.4323 37.0279 78.4484 35.0118Z" fill="white"/>
</g>
<defs>
<clipPath id="clip0_1190_230">
<rect width="86" height="94" fill="white" transform="translate(0.360352 61.1719) rotate(-45)"/>
</clipPath>
</defs>
</svg>
