<svg width="94" height="86" viewBox="0 0 94 86" fill="none" xmlns="http://www.w3.org/2000/svg">
<path d="M47 84.4644C44.2732 84.4644 41.6582 83.3318 39.7301 81.3158C37.802 79.2997 36.7188 76.5654 36.7188 73.7144C36.7188 70.8633 37.802 68.129 39.7301 66.113C41.6582 64.0969 44.2732 62.9644 47 62.9644C49.7268 62.9644 52.3418 64.0969 54.2699 66.113C56.1981 68.129 57.2812 70.8633 57.2812 73.7144C57.2812 76.5654 56.1981 79.2997 54.2699 81.3158C52.3418 83.3318 49.7268 84.4644 47 84.4644ZM47 53.7501C44.2732 53.7501 41.6582 52.6175 39.7301 50.6015C37.802 48.5855 36.7188 45.8511 36.7188 43.0001C36.7188 40.149 37.802 37.4147 39.7301 35.3987C41.6582 33.3827 44.2732 32.2501 47 32.2501C49.7268 32.2501 52.3418 33.3827 54.2699 35.3987C56.1981 37.4147 57.2812 40.149 57.2812 43.0001C57.2812 45.8511 56.1981 48.5855 54.2699 50.6015C52.3418 52.6175 49.7268 53.7501 47 53.7501ZM36.7188 12.2858C36.7188 9.43471 37.802 6.7004 39.7301 4.68439C41.6582 2.66837 44.2732 1.53578 47 1.53578C49.7268 1.53578 52.3418 2.66837 54.2699 4.68439C56.1981 6.7004 57.2812 9.43471 57.2812 12.2858C57.2812 15.1369 56.1981 17.8712 54.2699 19.8872C52.3418 21.9032 49.7268 23.0358 47 23.0358C44.2732 23.0358 41.6582 21.9032 39.7301 19.8872C37.802 17.8712 36.7188 15.1369 36.7188 12.2858Z" fill="white"/>
</svg>
