<svg width="128" height="128" viewBox="0 0 128 128" fill="none" xmlns="http://www.w3.org/2000/svg">
<g clip-path="url(#clip0_1190_226)">
<path d="M93.3197 93.3199C91.3916 95.248 88.7416 96.2963 85.9527 96.2341C83.1638 96.172 80.4644 95.0045 78.4484 92.9884C76.4324 90.9724 75.2649 88.273 75.2027 85.4841C75.1406 82.6952 76.1888 80.0452 78.117 78.1171C80.0451 76.189 82.6951 75.1407 85.484 75.2029C88.2729 75.265 90.9723 76.4325 92.9883 78.4486C95.0043 80.4646 96.1718 83.164 96.234 85.9529C96.2961 88.7418 95.2479 91.3918 93.3197 93.3199ZM71.6015 71.6016C69.6734 73.5297 67.0234 74.578 64.2344 74.5158C61.4455 74.4537 58.7461 73.2862 56.7301 71.2702C54.7141 69.2542 53.5466 66.5548 53.4844 63.7658C53.4223 60.9769 54.4706 58.3269 56.3987 56.3988C58.3268 54.4707 60.9768 53.4224 63.7657 53.4846C66.5546 53.5468 69.254 54.7143 71.27 56.7303C73.286 58.7463 74.4535 61.4457 74.5157 64.2346C74.5779 67.0235 73.5296 69.6735 71.6015 71.6016ZM35.0118 49.5519C32.9958 47.5359 31.8283 44.8365 31.7662 42.0476C31.704 39.2587 32.7523 36.6087 34.6804 34.6805C36.6085 32.7524 39.2585 31.7042 42.0474 31.7663C44.8363 31.8285 47.5357 32.996 49.5517 35.012C51.5677 37.028 52.7353 39.7274 52.7974 42.5163C52.8596 45.3052 51.8113 47.9552 49.8832 49.8833C47.9551 51.8115 45.3051 52.8597 42.5162 52.7976C39.7273 52.7354 37.0279 51.5679 35.0118 49.5519Z" fill="white"/>
</g>
<defs>
<clipPath id="clip0_1190_226">
<rect x="61.1716" y="127.64" width="86" height="94" transform="rotate(-135 61.1716 127.64)" fill="white"/>
</clipPath>
</defs>
</svg>
