<svg width="79" height="74" viewBox="0 0 79 74" fill="none" xmlns="http://www.w3.org/2000/svg">
<path d="M76.5159 24.0789C77.0097 25.3363 76.5931 26.7383 75.5284 27.6344L68.8474 33.3289C69.0171 34.5285 69.1097 35.757 69.1097 37C69.1097 38.243 69.0171 39.4715 68.8474 40.6711L75.5284 46.3656C76.5931 47.2617 77.0097 48.6637 76.5159 49.9211C75.837 51.641 75.0193 53.2887 74.078 54.8785L73.3529 56.0492C72.3345 57.6391 71.1927 59.1422 69.9429 60.5586C69.0325 61.5992 67.5204 61.9461 66.1626 61.5414L57.5683 58.9832C55.5007 60.4719 53.2171 61.7148 50.7792 62.6543L48.8505 70.907C48.5419 72.2223 47.4618 73.2629 46.0423 73.4797C43.913 73.8121 41.722 73.9855 39.4847 73.9855C37.2474 73.9855 35.0564 73.8121 32.9271 73.4797C31.5075 73.2629 30.4275 72.2223 30.1189 70.907L28.1902 62.6543C25.7523 61.7148 23.4687 60.4719 21.4011 58.9832L12.8222 61.5559C11.4644 61.9605 9.95226 61.5992 9.04191 60.573C7.7921 59.1566 6.65031 57.6535 5.63195 56.0637L4.90675 54.893C3.96554 53.3031 3.14777 51.6555 2.46886 49.9355C1.97511 48.6781 2.39171 47.2762 3.45636 46.3801L10.1374 40.6855C9.96769 39.4715 9.87511 38.243 9.87511 37C9.87511 35.757 9.96769 34.5285 10.1374 33.3289L3.45636 27.6344C2.39171 26.7383 1.97511 25.3363 2.46886 24.0789C3.14777 22.359 3.96554 20.7113 4.90675 19.1215L5.63195 17.9508C6.65031 16.3609 7.7921 14.8578 9.04191 13.4414C9.95226 12.4008 11.4644 12.0539 12.8222 12.4586L21.4165 15.0168C23.4841 13.5281 25.7677 12.2852 28.2056 11.3457L30.1343 3.09297C30.4429 1.77773 31.523 0.737109 32.9425 0.520312C35.0718 0.173437 37.2628 0 39.5001 0C41.7374 0 43.9284 0.173438 46.0577 0.505859C47.4773 0.722656 48.5573 1.76328 48.8659 3.07852L50.7946 11.3313C53.2325 12.2707 55.5161 13.5137 57.5837 15.0023L66.178 12.4441C67.5359 12.0395 69.048 12.4008 69.9583 13.427C71.2081 14.8434 72.3499 16.3465 73.3683 17.9363L74.0935 19.107C75.0347 20.6969 75.8525 22.3445 76.5314 24.0645L76.5159 24.0789ZM39.5001 48.5625C42.7739 48.5625 45.9136 47.3443 48.2285 45.1759C50.5434 43.0075 51.8439 40.0666 51.8439 37C51.8439 33.9334 50.5434 30.9925 48.2285 28.8241C45.9136 26.6557 42.7739 25.4375 39.5001 25.4375C36.2263 25.4375 33.0867 26.6557 30.7718 28.8241C28.4569 30.9925 27.1564 33.9334 27.1564 37C27.1564 40.0666 28.4569 43.0075 30.7718 45.1759C33.0867 47.3443 36.2263 48.5625 39.5001 48.5625Z" fill="white"/>
</svg>
