<svg width="74" height="74" viewBox="0 0 74 74" fill="none" xmlns="http://www.w3.org/2000/svg">
<g clip-path="url(#clip0_1189_220)">
<path d="M25.4375 3.46875C25.4375 1.54648 23.891 0 21.9688 0C20.0465 0 18.5 1.54648 18.5 3.46875V9.25C13.398 9.25 9.25 13.398 9.25 18.5H3.46875C1.54648 18.5 0 20.0465 0 21.9688C0 23.891 1.54648 25.4375 3.46875 25.4375H9.25V33.5312H3.46875C1.54648 33.5312 0 35.0777 0 37C0 38.9223 1.54648 40.4688 3.46875 40.4688H9.25V48.5625H3.46875C1.54648 48.5625 0 50.109 0 52.0312C0 53.9535 1.54648 55.5 3.46875 55.5H9.25C9.25 60.602 13.398 64.75 18.5 64.75V70.5312C18.5 72.4535 20.0465 74 21.9688 74C23.891 74 25.4375 72.4535 25.4375 70.5312V64.75H33.5312V70.5312C33.5312 72.4535 35.0777 74 37 74C38.9223 74 40.4688 72.4535 40.4688 70.5312V64.75H48.5625V70.5312C48.5625 72.4535 50.109 74 52.0312 74C53.9535 74 55.5 72.4535 55.5 70.5312V64.75C60.602 64.75 64.75 60.602 64.75 55.5H70.5312C72.4535 55.5 74 53.9535 74 52.0312C74 50.109 72.4535 48.5625 70.5312 48.5625H64.75V40.4688H70.5312C72.4535 40.4688 74 38.9223 74 37C74 35.0777 72.4535 33.5312 70.5312 33.5312H64.75V25.4375H70.5312C72.4535 25.4375 74 23.891 74 21.9688C74 20.0465 72.4535 18.5 70.5312 18.5H64.75C64.75 13.398 60.602 9.25 55.5 9.25V3.46875C55.5 1.54648 53.9535 0 52.0312 0C50.109 0 48.5625 1.54648 48.5625 3.46875V9.25H40.4688V3.46875C40.4688 1.54648 38.9223 0 37 0C35.0777 0 33.5312 1.54648 33.5312 3.46875V9.25H25.4375V3.46875ZM23.125 18.5H50.875C53.4332 18.5 55.5 20.5668 55.5 23.125V50.875C55.5 53.4332 53.4332 55.5 50.875 55.5H23.125C20.5668 55.5 18.5 53.4332 18.5 50.875V23.125C18.5 20.5668 20.5668 18.5 23.125 18.5ZM50.875 23.125H23.125V50.875H50.875V23.125Z" fill="white"/>
</g>
<defs>
<clipPath id="clip0_1189_220">
<rect width="74" height="74" fill="white"/>
</clipPath>
</defs>
</svg>
