<svg width="62" height="61" viewBox="0 0 62 61" fill="none" xmlns="http://www.w3.org/2000/svg">
<g clip-path="url(#clip0_1189_218)">
<path d="M62 30.5C62 30.6072 62 30.7145 62 30.8217C61.9516 35.1703 57.9312 38.125 53.5113 38.125H41.6562C38.4473 38.125 35.8438 40.6865 35.8438 43.8438C35.8438 44.2488 35.8922 44.642 35.9648 45.0232C36.2191 46.2385 36.752 47.4061 37.2727 48.5855C38.0113 50.2297 38.7379 51.8619 38.7379 53.5895C38.7379 57.3781 36.1223 60.8213 32.2715 60.9762C31.8477 60.9881 31.4238 61 30.9879 61C13.8773 61 0 47.3465 0 30.5C0 13.6535 13.8773 0 31 0C48.1227 0 62 13.6535 62 30.5ZM15.5 34.3125C15.5 33.3014 15.0917 32.3316 14.365 31.6167C13.6383 30.9017 12.6527 30.5 11.625 30.5C10.5973 30.5 9.61166 30.9017 8.88496 31.6167C8.15826 32.3316 7.75 33.3014 7.75 34.3125C7.75 35.3236 8.15826 36.2934 8.88496 37.0083C9.61166 37.7233 10.5973 38.125 11.625 38.125C12.6527 38.125 13.6383 37.7233 14.365 37.0083C15.0917 36.2934 15.5 35.3236 15.5 34.3125ZM15.5 22.875C16.5277 22.875 17.5133 22.4733 18.24 21.7583C18.9667 21.0434 19.375 20.0736 19.375 19.0625C19.375 18.0514 18.9667 17.0816 18.24 16.3667C17.5133 15.6517 16.5277 15.25 15.5 15.25C14.4723 15.25 13.4867 15.6517 12.76 16.3667C12.0333 17.0816 11.625 18.0514 11.625 19.0625C11.625 20.0736 12.0333 21.0434 12.76 21.7583C13.4867 22.4733 14.4723 22.875 15.5 22.875ZM34.875 11.4375C34.875 10.4264 34.4667 9.45664 33.74 8.74166C33.0133 8.02667 32.0277 7.625 31 7.625C29.9723 7.625 28.9867 8.02667 28.26 8.74166C27.5333 9.45664 27.125 10.4264 27.125 11.4375C27.125 12.4486 27.5333 13.4184 28.26 14.1333C28.9867 14.8483 29.9723 15.25 31 15.25C32.0277 15.25 33.0133 14.8483 33.74 14.1333C34.4667 13.4184 34.875 12.4486 34.875 11.4375ZM46.5 22.875C47.5277 22.875 48.5133 22.4733 49.24 21.7583C49.9667 21.0434 50.375 20.0736 50.375 19.0625C50.375 18.0514 49.9667 17.0816 49.24 16.3667C48.5133 15.6517 47.5277 15.25 46.5 15.25C45.4723 15.25 44.4867 15.6517 43.76 16.3667C43.0333 17.0816 42.625 18.0514 42.625 19.0625C42.625 20.0736 43.0333 21.0434 43.76 21.7583C44.4867 22.4733 45.4723 22.875 46.5 22.875Z" fill="white"/>
</g>
<defs>
<clipPath id="clip0_1189_218">
<rect width="62" height="61" fill="white"/>
</clipPath>
</defs>
</svg>
