<svg width="60" height="60" viewBox="0 0 60 60" fill="none" xmlns="http://www.w3.org/2000/svg">
<g clip-path="url(#clip0_1189_222)">
<path d="M41.25 37.5C51.6094 37.5 60 29.1094 60 18.75C60 16.957 59.7422 15.2227 59.2734 13.5703C58.9102 12.3047 57.3516 12.0234 56.4258 12.9492L47.4258 21.9492C47.0742 22.3008 46.5938 22.5 46.1016 22.5H39.375C38.3438 22.5 37.5 21.6562 37.5 20.625V13.8984C37.5 13.4062 37.6992 12.9258 38.0508 12.5742L47.0508 3.57422C47.9766 2.64844 47.6836 1.08984 46.4297 0.726562C44.7773 0.257812 43.043 0 41.25 0C30.8906 0 22.5 8.39062 22.5 18.75C22.5 20.9883 22.8984 23.1445 23.6133 25.1367L2.33203 46.418C0.84375 47.9062 0 49.9336 0 52.043C0 56.4375 3.5625 60 7.95703 60C10.0664 60 12.0938 59.1562 13.582 57.668L34.8633 36.3867C36.8555 37.1133 39.0117 37.5 41.25 37.5ZM9.375 47.8125C10.1209 47.8125 10.8363 48.1088 11.3637 48.6363C11.8912 49.1637 12.1875 49.8791 12.1875 50.625C12.1875 51.3709 11.8912 52.0863 11.3637 52.6137C10.8363 53.1412 10.1209 53.4375 9.375 53.4375C8.62908 53.4375 7.91371 53.1412 7.38626 52.6137C6.85882 52.0863 6.5625 51.3709 6.5625 50.625C6.5625 49.8791 6.85882 49.1637 7.38626 48.6363C7.91371 48.1088 8.62908 47.8125 9.375 47.8125Z" fill="white"/>
</g>
<defs>
<clipPath id="clip0_1189_222">
<rect width="60" height="60" fill="white"/>
</clipPath>
</defs>
</svg>
