<svg xmlns="http://www.w3.org/2000/svg" width="663" height="763" viewBox="-50 -50 663 763">
  <path d="M302.323 1.89033C358.247 0.0896143 417.841 -7.52356 465.271 28.974C512.888 65.6149 541.406 131.459 556.981 197.849C571.318 258.96 556.558 321.66 548.684 384.523C540.895 446.706 547.427 519.233 511.167 563.597C475.092 607.734 415.006 590.948 366.05 607.974C317.757 624.77 275.646 664.484 225.476 662.957C166.643 661.167 95.9679 656.53 60.5761 598.677C24.969 540.472 64.8566 456.533 55.2223 384.654C45.2804 310.48 -15.0424 244.667 3.52691 173.048C21.9561 101.968 89.7934 70.7837 144.766 39.2942C194.259 10.9437 247.749 3.64762 302.323 1.89033Z" fill="#141F12"/>
</svg>
