<svg width="152" height="171" viewBox="0 0 152 171" fill="none" xmlns="http://www.w3.org/2000/svg">
<rect width="107.737" height="66.2994" transform="matrix(-0.843602 0.536969 0.852686 0.522423 94.4028 75.0815)" fill="#0D0D0D"/>
<rect width="37.7907" height="20.2213" rx="7.69264" transform="matrix(-0.843602 0.536969 0.852686 0.522423 101.363 116.2)" fill="#242424"/>
<rect width="6.62994" height="4.97246" rx="2.48623" transform="matrix(-0.843602 0.536969 0.852686 0.522423 102.645 85.3711)" fill="#242424"/>
<rect width="6.62994" height="4.97246" rx="2.48623" transform="matrix(-0.843602 0.536969 0.852686 0.522423 96.9915 81.9067)" fill="#242424"/>
<rect width="6.62994" height="4.97246" rx="2.48623" transform="matrix(-0.843602 0.536969 0.852686 0.522423 74.679 103.171)" fill="#242424"/>
<rect width="6.62994" height="4.97246" rx="2.48623" transform="matrix(-0.843602 0.536969 0.852686 0.522423 69.0261 99.708)" fill="#242424"/>
<rect width="6.62994" height="4.97246" rx="2.48623" transform="matrix(-0.843602 0.536969 0.852686 0.522423 46.7144 120.972)" fill="#242424"/>
<rect width="6.62994" height="4.97246" rx="2.48623" transform="matrix(-0.843602 0.536969 0.852686 0.522423 41.0603 117.508)" fill="#242424"/>
<rect width="6.62994" height="4.97246" rx="2.48623" transform="matrix(-0.843602 0.536969 0.852686 0.522423 113.951 92.2983)" fill="#242424"/>
<rect width="6.62994" height="4.97246" rx="2.48623" transform="matrix(-0.843602 0.536969 0.852686 0.522423 85.9861 110.099)" fill="#242424"/>
<rect width="6.62994" height="4.97246" rx="2.48623" transform="matrix(-0.843602 0.536969 0.852686 0.522423 58.0208 127.899)" fill="#242424"/>
<rect width="14.9174" height="4.97246" rx="2.48623" transform="matrix(-0.843602 0.536969 0.852686 0.522423 108.298 88.8345)" fill="#242424"/>
<rect width="6.62994" height="4.97246" rx="2.48623" transform="matrix(-0.843602 0.536969 0.852686 0.522423 80.3323 106.634)" fill="#242424"/>
<rect width="6.62994" height="4.97246" rx="2.48623" transform="matrix(-0.843602 0.536969 0.852686 0.522423 52.3674 124.436)" fill="#242424"/>
<rect width="6.62994" height="4.97246" rx="2.48623" transform="matrix(-0.843602 0.536969 0.852686 0.522423 119.604 95.7622)" fill="#242424"/>
<rect width="31.4922" height="4.97246" rx="2.48623" transform="matrix(-0.843602 0.536969 0.852686 0.522423 91.6392 113.562)" fill="#242424"/>
<rect width="6.62994" height="4.97246" rx="2.48623" transform="matrix(-0.843602 0.536969 0.852686 0.522423 63.6736 131.362)" fill="#242424"/>
<rect width="6.62994" height="4.97246" rx="2.48623" transform="matrix(-0.843602 0.536969 0.852686 0.522423 88.6621 94.2715)" fill="#242424"/>
<rect width="6.62994" height="4.97246" rx="2.48623" transform="matrix(-0.843602 0.536969 0.852686 0.522423 83.0085 90.8076)" fill="#242424"/>
<rect width="6.62994" height="4.97246" rx="2.48623" transform="matrix(-0.843602 0.536969 0.852686 0.522423 60.6963 112.072)" fill="#242424"/>
<rect width="6.62994" height="4.97246" rx="2.48623" transform="matrix(-0.843602 0.536969 0.852686 0.522423 55.0435 108.608)" fill="#242424"/>
<rect width="6.62994" height="4.97246" rx="2.48623" transform="matrix(-0.843602 0.536969 0.852686 0.522423 32.7312 129.872)" fill="#242424"/>
<rect width="6.62994" height="4.97246" rx="2.48623" transform="matrix(-0.843602 0.536969 0.852686 0.522423 27.0786 126.408)" fill="#242424"/>
<rect width="6.62994" height="4.97246" rx="2.48623" transform="matrix(-0.843602 0.536969 0.852686 0.522423 99.968 101.199)" fill="#242424"/>
<rect width="6.62994" height="4.97246" rx="2.48623" transform="matrix(-0.843602 0.536969 0.852686 0.522423 72.0034 118.999)" fill="#242424"/>
<rect width="6.62994" height="4.97246" rx="2.48623" transform="matrix(-0.843602 0.536969 0.852686 0.522423 44.0378 136.799)" fill="#242424"/>
<rect width="6.62994" height="4.97246" rx="2.48623" transform="matrix(-0.843602 0.536969 0.852686 0.522423 94.3152 97.7349)" fill="#242424"/>
<rect width="6.62994" height="4.97246" rx="2.48623" transform="matrix(-0.843602 0.536969 0.852686 0.522423 66.3503 115.536)" fill="#242424"/>
<rect width="6.62994" height="4.97246" rx="2.48623" transform="matrix(-0.843602 0.536969 0.852686 0.522423 105.622 104.662)" fill="#242424"/>
<rect width="6.62994" height="4.97246" rx="2.48623" transform="matrix(-0.843602 0.536969 0.852686 0.522423 49.6912 140.263)" fill="#242424"/>
<rect width="6.62994" height="4.97246" rx="2.48623" transform="matrix(-0.843602 0.536969 0.852686 0.522423 95.6531 89.8213)" fill="#242424"/>
<rect width="6.62994" height="4.97246" rx="2.48623" transform="matrix(-0.843602 0.536969 0.852686 0.522423 89.9998 86.3574)" fill="#242424"/>
<rect width="6.62994" height="4.97246" rx="2.48623" transform="matrix(-0.843602 0.536969 0.852686 0.522423 67.6875 107.621)" fill="#242424"/>
<rect width="6.62994" height="4.97246" rx="2.48623" transform="matrix(-0.843602 0.536969 0.852686 0.522423 62.0344 104.158)" fill="#242424"/>
<rect width="6.62994" height="4.97246" rx="2.48623" transform="matrix(-0.843602 0.536969 0.852686 0.522423 39.7229 125.421)" fill="#242424"/>
<rect width="6.62994" height="4.97246" rx="2.48623" transform="matrix(-0.843602 0.536969 0.852686 0.522423 34.0696 121.958)" fill="#242424"/>
<rect width="6.62994" height="4.97246" rx="2.48623" transform="matrix(-0.843602 0.536969 0.852686 0.522423 106.96 96.748)" fill="#242424"/>
<rect width="6.62994" height="4.97246" rx="2.48623" transform="matrix(-0.843602 0.536969 0.852686 0.522423 78.9949 114.549)" fill="#242424"/>
<rect width="6.62994" height="4.97246" rx="2.48623" transform="matrix(-0.843602 0.536969 0.852686 0.522423 51.0291 132.349)" fill="#242424"/>
<rect width="6.62994" height="4.97246" rx="2.48623" transform="matrix(-0.843602 0.536969 0.852686 0.522423 73.3413 111.085)" fill="#242424"/>
<rect width="6.62994" height="4.97246" rx="2.48623" transform="matrix(-0.843602 0.536969 0.852686 0.522423 45.3762 128.885)" fill="#242424"/>
<rect width="6.62994" height="4.97246" rx="2.48623" transform="matrix(-0.843602 0.536969 0.852686 0.522423 112.613 100.212)" fill="#242424"/>
<rect width="6.62994" height="4.97246" rx="2.48623" transform="matrix(-0.843602 0.536969 0.852686 0.522423 56.6826 135.813)" fill="#242424"/>
<rect width="6.62994" height="4.97246" rx="2.48623" transform="matrix(-0.843602 0.536969 0.852686 0.522423 81.6707 98.7217)" fill="#242424"/>
<rect width="6.62994" height="4.97246" rx="2.48623" transform="matrix(-0.843602 0.536969 0.852686 0.522423 76.0173 95.2573)" fill="#242424"/>
<rect width="6.62994" height="4.97246" rx="2.48623" transform="matrix(-0.843602 0.536969 0.852686 0.522423 53.7053 116.521)" fill="#242424"/>
<rect width="6.62994" height="4.97246" rx="2.48623" transform="matrix(-0.843602 0.536969 0.852686 0.522423 48.0522 113.059)" fill="#242424"/>
<rect width="6.62994" height="4.97246" rx="2.48623" transform="matrix(-0.843602 0.536969 0.852686 0.522423 25.74 134.323)" fill="#242424"/>
<rect width="6.62994" height="4.97246" rx="2.48623" transform="matrix(-0.843602 0.536969 0.852686 0.522423 20.0869 130.858)" fill="#242424"/>
<rect width="6.62994" height="4.97246" rx="2.48623" transform="matrix(-0.843602 0.536969 0.852686 0.522423 92.9768 105.648)" fill="#242424"/>
<rect width="6.62994" height="4.97246" rx="2.48623" transform="matrix(-0.843602 0.536969 0.852686 0.522423 65.012 123.448)" fill="#242424"/>
<rect width="6.62994" height="4.97246" rx="2.48623" transform="matrix(-0.843602 0.536969 0.852686 0.522423 37.0469 141.25)" fill="#242424"/>
<rect width="6.62994" height="4.97246" rx="2.48623" transform="matrix(-0.843602 0.536969 0.852686 0.522423 87.3235 102.185)" fill="#242424"/>
<rect width="6.62994" height="4.97246" rx="2.48623" transform="matrix(-0.843602 0.536969 0.852686 0.522423 59.3586 119.984)" fill="#242424"/>
<rect width="14.9174" height="4.97246" rx="2.48623" transform="matrix(-0.843602 0.536969 0.852686 0.522423 38.3845 133.335)" fill="#242424"/>
<rect width="6.62994" height="4.97246" rx="2.48623" transform="matrix(-0.843602 0.536969 0.852686 0.522423 98.6304 109.113)" fill="#242424"/>
<rect width="6.62994" height="4.97246" rx="2.48623" transform="matrix(-0.843602 0.536969 0.852686 0.522423 42.6997 144.713)" fill="#242424"/>
<rect width="107.737" height="73.4004" transform="matrix(-0.843602 0.536969 0.00857454 0.999963 93.5168 1.86133)" fill="#0A0A0A"/>
<rect width="102.764" height="65.6741" rx="7.69264" transform="matrix(-0.843602 0.536969 0.00857454 0.999963 91.4414 5.83008)" fill="black"/>
<rect width="20.7186" height="1.22919" rx="0.614597" transform="matrix(-0.843602 0.536969 0.00857454 0.999963 87.3328 18.5083)" fill="#05DCA8"/>
<rect width="20.7186" height="1.22919" rx="0.614597" transform="matrix(-0.843602 0.536969 0.00857454 0.999963 87.5586 44.8477)" fill="#7005DC"/>
<rect width="20.7186" height="1.22919" rx="0.614597" transform="matrix(-0.843602 0.536969 0.00857454 0.999963 67.2837 57.7524)" fill="#05DCA8"/>
<rect width="9.77916" height="1.22919" rx="0.614597" transform="matrix(-0.843602 0.536969 0.00857454 0.999963 87.408 27.2881)" fill="#DCC605"/>
<rect width="9.77916" height="1.22919" rx="0.614597" transform="matrix(-0.843602 0.536969 0.00857454 0.999963 65.3157 41.3506)" fill="#7005DC"/>
<rect width="9.77916" height="1.22919" rx="0.614597" transform="matrix(-0.843602 0.536969 0.00857454 0.999963 76.3613 34.3193)" fill="#06CAF5"/>
<rect width="9.77916" height="1.22919" rx="0.614597" transform="matrix(-0.843602 0.536969 0.00857454 0.999963 67.0579 31.4131)" fill="#DCC605"/>
<rect width="9.77916" height="1.22919" rx="0.614597" transform="matrix(-0.843602 0.536969 0.00857454 0.999963 87.6338 53.6274)" fill="#05DCA8"/>
<rect width="27.5143" height="1.22919" rx="0.614597" transform="matrix(-0.843602 0.536969 0.00857454 0.999963 87.4832 36.0679)" fill="#06CAF5"/>
<rect width="27.5143" height="1.22919" rx="0.614597" transform="matrix(-0.843602 0.536969 0.00857454 0.999963 87.709 62.4072)" fill="#7005DC"/>
<rect width="27.5143" height="1.22919" rx="0.614597" transform="matrix(-0.843602 0.536969 0.00857454 0.999963 76.5874 60.6582)" fill="#06CAF5"/>
<rect width="69.0918" height="2.80959" transform="matrix(-0.852686 -0.522423 0.0085745 0.999963 60.033 167.351)" fill="#090909"/>
<rect width="107.753" height="2.80959" transform="matrix(-0.843602 0.536969 0.00857454 0.999963 150.933 109.492)" fill="#161616"/>
<rect width="107.659" height="2.59304" transform="matrix(-0.843602 0.536969 0.852686 0.522423 91.3103 0.50293)" fill="#232323"/>
<path d="M2.77856 59.7109L0.493827 58.3111L1.11944 131.271L3.40418 132.67L2.77856 59.7109Z" fill="#080808"/>
</svg>
