<svg width="45" height="45" viewBox="0 0 45 45" fill="none" xmlns="http://www.w3.org/2000/svg">
<rect width="45" height="45" rx="22.5" fill="#FAF5FC"/>
<path d="M18.5176 22.6076C18.5176 20.3457 20.3517 18.5117 22.615 18.5117C24.8782 18.5117 26.7133 20.3457 26.7133 22.6076C26.7133 24.8694 24.8782 26.7035 22.615 26.7035C20.3517 26.7035 18.5176 24.8694 18.5176 22.6076ZM16.3021 22.6076C16.3021 26.0921 19.1283 28.9167 22.615 28.9167C26.1016 28.9167 28.9279 26.0921 28.9279 22.6076C28.9279 19.1231 26.1016 16.2985 22.615 16.2985C19.1283 16.2985 16.3021 19.1231 16.3021 22.6076ZM27.7025 16.0483C27.7024 16.3399 27.7888 16.625 27.9508 16.8675C28.1128 17.1101 28.3431 17.2992 28.6127 17.4109C28.8822 17.5226 29.1788 17.5519 29.465 17.4951C29.7512 17.4383 30.0141 17.298 30.2205 17.0919C30.427 16.8858 30.5676 16.6231 30.6246 16.3371C30.6816 16.0511 30.6525 15.7547 30.541 15.4852C30.4294 15.2158 30.2404 14.9854 29.9979 14.8233C29.7553 14.6612 29.4701 14.5746 29.1784 14.5745H29.1778C28.7867 14.5747 28.4116 14.73 28.135 15.0063C27.8584 15.2827 27.7028 15.6574 27.7025 16.0483ZM17.6481 32.6087C16.4495 32.5542 15.798 32.3546 15.365 32.1861C14.7911 31.9627 14.3815 31.6968 13.9509 31.267C13.5203 30.8373 13.2538 30.4284 13.0313 29.8547C12.8625 29.4222 12.6629 28.7709 12.6084 27.573C12.5488 26.2779 12.5369 25.8888 12.5369 22.6077C12.5369 19.3265 12.5498 18.9386 12.6084 17.6423C12.663 16.4444 12.8641 15.7944 13.0313 15.3606C13.2548 14.787 13.5209 14.3777 13.9509 13.9474C14.3809 13.517 14.7901 13.2507 15.365 13.0283C15.7978 12.8596 16.4495 12.6601 17.6481 12.6057C18.944 12.5461 19.3333 12.5342 22.615 12.5342C25.8966 12.5342 26.2863 12.5471 27.5833 12.6057C28.7819 12.6602 29.4323 12.8612 29.8663 13.0283C30.4403 13.2507 30.8499 13.5176 31.2805 13.9474C31.7111 14.3771 31.9766 14.787 32.2001 15.3606C32.3688 15.7931 32.5685 16.4444 32.623 17.6423C32.6826 18.9386 32.6945 19.3265 32.6945 22.6077C32.6945 25.8888 32.6826 26.2768 32.623 27.573C32.5684 28.7709 32.3678 29.422 32.2001 29.8547C31.9766 30.4284 31.7105 30.8377 31.2805 31.267C30.8505 31.6964 30.4403 31.9627 29.8663 32.1861C29.4336 32.3547 28.7819 32.5543 27.5833 32.6087C26.2874 32.6683 25.8981 32.6802 22.615 32.6802C19.3318 32.6802 18.9436 32.6683 17.6481 32.6087ZM17.5463 10.3952C16.2375 10.4548 15.3432 10.6622 14.5622 10.9659C13.7533 11.2796 13.0686 11.7004 12.3843 12.3831C11.7001 13.0659 11.2801 13.7513 10.9663 14.5596C10.6624 15.3407 10.4549 16.234 10.3953 17.542C10.3347 18.8521 10.3208 19.2709 10.3208 22.6076C10.3208 25.9443 10.3347 26.3631 10.3953 27.6732C10.4549 28.9813 10.6624 29.8745 10.9663 30.6555C11.2801 31.4634 11.7002 32.1496 12.3843 32.8321C13.0685 33.5145 13.7533 33.9347 14.5622 34.2493C15.3447 34.553 16.2375 34.7604 17.5463 34.82C18.8579 34.8795 19.2763 34.8944 22.615 34.8944C25.9537 34.8944 26.3727 34.8805 27.6836 34.82C28.9925 34.7604 29.8862 34.553 30.6677 34.2493C31.4761 33.9347 32.1613 33.5148 32.8456 32.8321C33.5298 32.1493 33.9489 31.4634 34.2636 30.6555C34.5675 29.8745 34.776 28.9812 34.8347 27.6732C34.8943 26.3621 34.9081 25.9443 34.9081 22.6076C34.9081 19.2709 34.8943 18.8521 34.8347 17.542C34.7751 16.2339 34.5675 15.3402 34.2636 14.5596C33.9489 13.7518 33.5287 13.0669 32.8456 12.3831C32.1624 11.6993 31.4761 11.2796 30.6687 10.9659C29.8862 10.6622 28.9924 10.4538 27.6846 10.3952C26.3737 10.3356 25.9546 10.3208 22.6159 10.3208C19.2772 10.3208 18.8579 10.3347 17.5463 10.3952Z" fill="url(#paint0_radial_1253_249)"/>
<path d="M18.5176 22.6076C18.5176 20.3457 20.3517 18.5117 22.615 18.5117C24.8782 18.5117 26.7133 20.3457 26.7133 22.6076C26.7133 24.8694 24.8782 26.7035 22.615 26.7035C20.3517 26.7035 18.5176 24.8694 18.5176 22.6076ZM16.3021 22.6076C16.3021 26.0921 19.1283 28.9167 22.615 28.9167C26.1016 28.9167 28.9279 26.0921 28.9279 22.6076C28.9279 19.1231 26.1016 16.2985 22.615 16.2985C19.1283 16.2985 16.3021 19.1231 16.3021 22.6076ZM27.7025 16.0483C27.7024 16.3399 27.7888 16.625 27.9508 16.8675C28.1128 17.1101 28.3431 17.2992 28.6127 17.4109C28.8822 17.5226 29.1788 17.5519 29.465 17.4951C29.7512 17.4383 30.0141 17.298 30.2205 17.0919C30.427 16.8858 30.5676 16.6231 30.6246 16.3371C30.6816 16.0511 30.6525 15.7547 30.541 15.4852C30.4294 15.2158 30.2404 14.9854 29.9979 14.8233C29.7553 14.6612 29.4701 14.5746 29.1784 14.5745H29.1778C28.7867 14.5747 28.4116 14.73 28.135 15.0063C27.8584 15.2827 27.7028 15.6574 27.7025 16.0483ZM17.6481 32.6087C16.4495 32.5542 15.798 32.3546 15.365 32.1861C14.7911 31.9627 14.3815 31.6968 13.9509 31.267C13.5203 30.8373 13.2538 30.4284 13.0313 29.8547C12.8625 29.4222 12.6629 28.7709 12.6084 27.573C12.5488 26.2779 12.5369 25.8888 12.5369 22.6077C12.5369 19.3265 12.5498 18.9386 12.6084 17.6423C12.663 16.4444 12.8641 15.7944 13.0313 15.3606C13.2548 14.787 13.5209 14.3777 13.9509 13.9474C14.3809 13.517 14.7901 13.2507 15.365 13.0283C15.7978 12.8596 16.4495 12.6601 17.6481 12.6057C18.944 12.5461 19.3333 12.5342 22.615 12.5342C25.8966 12.5342 26.2863 12.5471 27.5833 12.6057C28.7819 12.6602 29.4323 12.8612 29.8663 13.0283C30.4403 13.2507 30.8499 13.5176 31.2805 13.9474C31.7111 14.3771 31.9766 14.787 32.2001 15.3606C32.3688 15.7931 32.5685 16.4444 32.623 17.6423C32.6826 18.9386 32.6945 19.3265 32.6945 22.6077C32.6945 25.8888 32.6826 26.2768 32.623 27.573C32.5684 28.7709 32.3678 29.422 32.2001 29.8547C31.9766 30.4284 31.7105 30.8377 31.2805 31.267C30.8505 31.6964 30.4403 31.9627 29.8663 32.1861C29.4336 32.3547 28.7819 32.5543 27.5833 32.6087C26.2874 32.6683 25.8981 32.6802 22.615 32.6802C19.3318 32.6802 18.9436 32.6683 17.6481 32.6087ZM17.5463 10.3952C16.2375 10.4548 15.3432 10.6622 14.5622 10.9659C13.7533 11.2796 13.0686 11.7004 12.3843 12.3831C11.7001 13.0659 11.2801 13.7513 10.9663 14.5596C10.6624 15.3407 10.4549 16.234 10.3953 17.542C10.3347 18.8521 10.3208 19.2709 10.3208 22.6076C10.3208 25.9443 10.3347 26.3631 10.3953 27.6732C10.4549 28.9813 10.6624 29.8745 10.9663 30.6555C11.2801 31.4634 11.7002 32.1496 12.3843 32.8321C13.0685 33.5145 13.7533 33.9347 14.5622 34.2493C15.3447 34.553 16.2375 34.7604 17.5463 34.82C18.8579 34.8795 19.2763 34.8944 22.615 34.8944C25.9537 34.8944 26.3727 34.8805 27.6836 34.82C28.9925 34.7604 29.8862 34.553 30.6677 34.2493C31.4761 33.9347 32.1613 33.5148 32.8456 32.8321C33.5298 32.1493 33.9489 31.4634 34.2636 30.6555C34.5675 29.8745 34.776 28.9812 34.8347 27.6732C34.8943 26.3621 34.9081 25.9443 34.9081 22.6076C34.9081 19.2709 34.8943 18.8521 34.8347 17.542C34.7751 16.2339 34.5675 15.3402 34.2636 14.5596C33.9489 13.7518 33.5287 13.0669 32.8456 12.3831C32.1624 11.6993 31.4761 11.2796 30.6687 10.9659C29.8862 10.6622 28.9924 10.4538 27.6846 10.3952C26.3737 10.3356 25.9546 10.3208 22.6159 10.3208C19.2772 10.3208 18.8579 10.3347 17.5463 10.3952Z" fill="url(#paint1_radial_1253_249)"/>
<defs>
<radialGradient id="paint0_radial_1253_249" cx="0" cy="0" r="1" gradientUnits="userSpaceOnUse" gradientTransform="translate(13.5875 35.0105) scale(32.098 32.0787)">
<stop offset="0.09" stop-color="#FA8F21"/>
<stop offset="0.78" stop-color="#D82D7E"/>
</radialGradient>
<radialGradient id="paint1_radial_1253_249" cx="0" cy="0" r="1" gradientUnits="userSpaceOnUse" gradientTransform="translate(25.2325 36.1113) scale(25.2976 25.2825)">
<stop offset="0.64" stop-color="#8C3AAA" stop-opacity="0"/>
<stop offset="1" stop-color="#8C3AAA"/>
</radialGradient>
</defs>
</svg>
