<svg width="45" height="45" viewBox="0 0 45 45" fill="none" xmlns="http://www.w3.org/2000/svg">
<rect width="45" height="45" rx="22.5" fill="#EEFAFF"/>
<path d="M10.3208 12.0821C10.3208 11.1099 11.1347 10.3208 12.138 10.3208H33.0919C34.0956 10.3208 34.9091 11.1099 34.9091 12.0821V33.1481C34.9091 34.1206 34.0956 34.9091 33.0919 34.9091H12.138C11.1348 34.9091 10.3208 34.1207 10.3208 33.1484V12.0818V12.0821Z" fill="#006699"/>
<path d="M17.7928 30.8982V19.8284H14.1134V30.8982H17.7932H17.7928ZM15.9538 18.3173C17.2367 18.3173 18.0353 17.4673 18.0353 16.405C18.0113 15.3185 17.2367 14.4922 15.9782 14.4922C14.7189 14.4922 13.8965 15.3185 13.8965 16.4049C13.8965 17.4672 14.6948 18.3172 15.9297 18.3172H15.9535L15.9538 18.3173ZM19.8294 30.8982H23.5085V24.717C23.5085 24.3866 23.5325 24.0553 23.6297 23.8193C23.8956 23.158 24.501 22.4735 25.5176 22.4735C26.8487 22.4735 27.3814 23.4885 27.3814 24.9768V30.8982H31.0605V24.5511C31.0605 21.1511 29.2455 19.5689 26.8248 19.5689C24.8402 19.5689 23.9686 20.6782 23.4843 21.4337H23.5088V19.8288H19.8296C19.8776 20.8673 19.8293 30.8985 19.8293 30.8985L19.8294 30.8982Z" fill="white"/>
</svg>
