<svg width="45" height="45" viewBox="0 0 45 45" fill="none" xmlns="http://www.w3.org/2000/svg">
<rect width="45" height="45" rx="22.5" fill="#EEFBFF"/>
<path d="M33.6684 15.3244C32.9254 15.6441 32.1443 15.8668 31.3443 15.9869C31.7183 15.9228 32.2686 15.2496 32.4877 14.9771C32.8205 14.5661 33.0741 14.0969 33.2356 13.5933C33.2356 13.5559 33.273 13.5025 33.2356 13.4758C33.2168 13.4655 33.1957 13.4601 33.1742 13.4601C33.1527 13.4601 33.1316 13.4655 33.1128 13.4758C32.2441 13.9462 31.3197 14.3052 30.3612 14.5443C30.3278 14.5545 30.2923 14.5555 30.2584 14.547C30.2245 14.5385 30.1936 14.521 30.1689 14.4963C30.0943 14.4074 30.014 14.3235 29.9285 14.2451C29.5376 13.8949 29.0941 13.6082 28.6142 13.3956C27.9664 13.1299 27.2667 13.0148 26.5679 13.059C25.8899 13.1019 25.2279 13.2837 24.6231 13.5933C24.0276 13.9197 23.5042 14.3632 23.0844 14.897C22.6428 15.4464 22.324 16.084 22.1494 16.7669C22.0055 17.4165 21.9891 18.0879 22.1013 18.7437C22.1013 18.8559 22.1013 18.872 22.0052 18.8559C18.1958 18.295 15.0703 16.9432 12.5164 14.0421C12.4042 13.9139 12.3455 13.9139 12.2546 14.0421C11.1433 15.7304 11.683 18.4018 13.0721 19.7215C13.2591 19.8978 13.4514 20.0687 13.6544 20.229C13.0175 20.1838 12.3962 20.0112 11.8272 19.7215C11.7204 19.652 11.6616 19.6894 11.6562 19.8176C11.6411 19.9954 11.6411 20.1741 11.6562 20.3519C11.7677 21.2039 12.1035 22.0109 12.6292 22.6906C13.1549 23.3702 13.8516 23.898 14.6482 24.2201C14.8424 24.3032 15.0447 24.3659 15.2519 24.4071C14.6623 24.5231 14.0576 24.5412 13.4621 24.4605C13.3339 24.4338 13.2858 24.5032 13.3339 24.6261C14.1193 26.7632 15.8236 27.415 17.0738 27.7783C17.2448 27.8051 17.4157 27.8051 17.6081 27.8478C17.6081 27.8478 17.6081 27.8478 17.576 27.8799C17.2074 28.553 15.7167 29.0072 15.0329 29.2423C13.7846 29.6906 12.4538 29.862 11.1327 29.7445C10.9243 29.7124 10.8762 29.7178 10.8228 29.7445C10.7694 29.7712 10.8228 29.83 10.8815 29.8834C11.1487 30.0597 11.4158 30.2146 11.6936 30.3642C12.5207 30.8154 13.3951 31.1737 14.3009 31.4328C18.9919 32.7257 24.2705 31.7747 27.7914 28.2752C30.5589 25.529 31.5313 21.741 31.5313 17.9477C31.5313 17.8034 31.7076 17.7179 31.8091 17.6431C32.5093 17.0976 33.1266 16.4533 33.6417 15.7304C33.7309 15.6227 33.7766 15.4855 33.7699 15.3457C33.7699 15.2656 33.7699 15.2816 33.6684 15.3244Z" fill="#33CCFF"/>
</svg>
