<svg width="526" height="441" viewBox="0 0 526 441" fill="none" xmlns="http://www.w3.org/2000/svg">
<path fill-rule="evenodd" clip-rule="evenodd" d="M282.455 1.25737C334.703 0.0596077 390.381 -5.00436 434.694 19.2723C479.181 43.6443 505.825 87.441 520.376 131.601C533.771 172.25 519.982 213.955 512.625 255.769C505.348 297.13 511.45 345.372 477.573 374.881C443.87 404.239 387.732 393.074 341.993 404.399C296.874 415.571 257.53 441.987 210.658 440.972C155.691 439.78 89.661 436.696 56.5951 398.215C23.3281 359.5 60.5943 303.667 51.5931 255.856C42.3046 206.519 -14.0538 162.743 3.29513 115.104C20.5132 67.8251 83.8923 47.0824 135.252 26.1369C181.492 7.27931 231.467 2.42625 282.455 1.25737Z" fill="#060E54"/>
</svg>
