<svg width="773" height="422" viewBox="0 0 773 422" fill="none" xmlns="http://www.w3.org/2000/svg">
<path fill-rule="evenodd" clip-rule="evenodd" d="M415.091 1.20319C491.873 0.0570395 573.697 -4.78875 638.818 18.442C704.196 41.7639 743.351 83.6737 764.736 125.931C784.42 164.828 764.155 204.737 753.344 244.749C742.65 284.329 751.618 330.492 701.833 358.73C652.303 386.823 569.804 376.139 502.587 386.976C436.281 397.667 378.462 422.945 309.579 421.973C228.801 420.833 131.764 417.882 83.1711 381.058C34.2825 344.011 89.0483 290.584 75.8203 244.833C62.1701 197.621 -20.6532 155.731 4.84246 110.145C30.1458 64.903 123.287 45.0539 198.764 25.0108C266.717 6.96569 340.159 2.32171 415.091 1.20319Z" fill="#060E54"/>
</svg>
